<?xml version="1.0" encoding="utf-8"?>
<!-- Generator: Adobe Illustrator 24.1.3, SVG Export Plug-In . SVG Version: 6.00 Build 0)  -->
<svg version="1.1" id="Ebene_1" xmlns="http://www.w3.org/2000/svg" xmlns:xlink="http://www.w3.org/1999/xlink" x="0px" y="0px"
	 viewBox="0 0 193 92.3" style="enable-background:new 0 0 193 92.3;" xml:space="preserve">
<style type="text/css">
	.st0{fill:#9D9D9C;}
	.st1{fill-rule:evenodd;clip-rule:evenodd;fill:#9D9D9C;}
	.st2{fill:#FFD400;}
</style>
<g>
	<g>
		<path class="st0" d="M57.2,42.4c-1.5,0-2.7-1.2-2.7-2.7c0-1.5,1.2-2.7,2.7-2.7c1.5,0,2.7,1.2,2.7,2.7
			C59.9,41.1,58.7,42.4,57.2,42.4z M57.2,37.1c-1.4,0-2.5,1.1-2.5,2.5c0,1.4,1.1,2.5,2.5,2.5c1.4,0,2.5-1.1,2.5-2.5
			C59.7,38.2,58.6,37.1,57.2,37.1z"/>
	</g>
	<path class="st1" d="M56.6,39.8h0.6l0.8,1.3h0.4l-0.9-1.3c0.5,0,0.9-0.3,0.9-0.8c0-0.5-0.3-0.8-1-0.8h-1.3v3h0.4V39.8 M56.6,39.4
		v-1h0.8c0.4,0,0.7,0.1,0.7,0.5c0,0.6-0.6,0.5-1,0.5H56.6z"/>
	<polyline class="st2" points="60.5,30.6 91.2,0.1 91.2,30.7 60.6,61.2 60.6,30.7 30.6,30.7 -0.1,0 29.9,0 60.5,30.6 	"/>
	<path class="st1" d="M13.7,37.5c1.4,0.5,2.7,1.8,3,3.2c0.3,1.6-0.4,2.9-1.6,3.8c-0.5,0.3-1.1,0.5-1.7,0.7v0.1
		c1.5,0.1,2.8,1,3.6,2.4c0.6,1.5,0.3,2.8-0.4,4.1c-1.5,1.9-3.8,2.3-6.3,2.2l-8.3,0l0-17.1C6,37.1,10.8,36.7,13.7,37.5 M12.5,47.8
		c-1-1.6-3.8-1.1-5.5-1.2v4.4c1.4-0.1,3,0.1,4.3-0.2c0.5-0.3,1.1-0.7,1.3-1.3C12.8,49.1,12.8,48.4,12.5,47.8z M12.2,41.4
		c-0.5-1.1-1.9-1.2-3.6-1.2c-0.9,0-1.5,0-1.5,0v4.1c1.8-0.1,3.7,0.5,4.9-0.8C12.4,43,12.4,42.1,12.2,41.4z"/>
	<path class="st0" d="M24.8,37.2l0,7.9c0,0,3.9-5.3,5.8-7.9h5.5L30,45l6.5,9.4h-6c0,0-5.7-9-5.7-9c0,3.2,0,8.9,0,8.9l-5.1,0l0-17.2
		H24.8"/>
	<path class="st0" d="M43.2,37.2l0,8l6-8h5.6l-6.3,7.9c2,3.2,6.4,9.3,6.4,9.3h-5.9c0,0-5.7-8.9-5.7-8.9l0,8.8l-5,0V37.2H43.2"/>
	<rect x="30.5" y="61.2" class="st2" width="30.2" height="30.2"/>
</g>
<g>
	<path class="st0" d="M69,76.2h5c1.4,0,2.9,0.1,4.1,0.9c2.2,1.4,3.2,3.8,3.2,6.7c0,2.9-1,5.2-3.2,6.7c-1.2,0.8-2.7,0.9-4.1,0.9h-5
		V76.2z M71.1,89.5h3.1c2.1,0,3.3-0.9,3.8-1.7c0.9-1.3,1.2-2.6,1.2-4.1c0-1.4-0.3-2.8-1.2-4.1c-0.6-0.9-1.7-1.7-3.8-1.7h-3.1V89.5z"
		/>
	<path class="st0" d="M89.8,84.8c0-1.8-0.1-2.9-2.2-2.9c-1,0-2,0.6-2,1.7h-2.1c0.1-2.3,1.9-3.1,4-3.1c2.2,0,4.3,0.7,4.3,3.6v5
		c0,0.5,0,1.3,0.1,2.2h-1.3c-0.2,0-0.5,0.1-0.6-0.1c0-0.5-0.1-0.9-0.1-1.4h0c-0.7,1.3-1.8,1.9-3.3,1.9c-1.8,0-3.7-0.9-3.7-3
		c0-3,2.6-3.8,5.1-3.8H89.8z M87.8,86.2c-1.2,0.1-2.8,0.5-2.8,2c0,1.3,0.9,2,2.1,2c2.4,0,2.8-2,2.8-4H87.8z"/>
	<path class="st0" d="M100.7,84.2c-0.1-1.3-0.7-2.2-2.2-2.2c-1.9,0-2.6,1.7-2.6,4.1c0,2.5,0.7,4.1,2.6,4.1c1.3,0,2.1-0.9,2.2-2.4h2
		c-0.2,2.4-1.9,3.8-4.3,3.8c-3.4,0-4.7-2.4-4.7-5.5c0-3.1,1.6-5.7,4.9-5.7c2.2,0,3.9,1.4,4,3.7H100.7z"/>
	<path class="st0" d="M104,91.4V76.2h2v6h0c0.8-1.2,1.9-1.7,3.4-1.7c2.8,0,3.6,1.8,3.6,3.7v7.1h-2v-6.2c0-1.8-0.5-3-2.4-3.1
		c-0.8,0-2,0.6-2.4,1.5c-0.5,1.1-0.3,1.8-0.3,2.4v5.4H104z"/>
	<path class="st0" d="M119.2,91.4l-4.4-10.5h2.2l3.4,8.4l3.3-8.4h2.2l-4.6,10.5H119.2z"/>
	<path class="st0" d="M128.8,86.5c-0.1,1.8,0.6,3.8,2.6,3.8c1.6,0,2.3-0.6,2.6-2.1h2.1c-0.3,2.4-2.2,3.6-4.7,3.6
		c-3.4,0-4.7-2.4-4.7-5.5c0-3.1,1.6-5.7,4.9-5.7c3.1,0.1,4.6,2.1,4.6,5v1H128.8z M134.1,85.1c0-1.8-0.8-3.1-2.7-3.1
		c-1.7,0-2.6,1.4-2.6,3.1H134.1z"/>
	<path class="st0" d="M140.3,91.4h-2V80.8h2v2h0c0.3-1.4,1.6-2.2,3.1-2.2c0.3,0,0.5,0,0.7,0v1.9c-0.3-0.1-0.6-0.1-0.9-0.1
		c-2.5,0.1-3,1.4-3,3.7V91.4z"/>
	<path class="st0" d="M148.2,91.4h-2.1c0-0.6,0.1-1.3,0.1-1.7V76.2h2v6h0c0.6-1.3,1.9-1.7,3.3-1.7c3.3,0,4.7,2.7,4.7,5.6
		c0,2.7-1.3,5.6-4.4,5.6c-1.5,0-2.9-0.5-3.6-2h0l0,0.1L148.2,91.4z M151.2,81.9c-2.3,0-3,2.2-3,4.1c0,2,0.6,4.1,3,4.1
		c2.2,0,3-2.2,3-4.1C154.2,84.1,153.6,81.9,151.2,81.9z"/>
	<path class="st0" d="M165.2,84.8c0-1.8-0.1-2.9-2.2-2.9c-1,0-2,0.6-2,1.7h-2.1c0.1-2.3,1.9-3.1,4-3.1c2.2,0,4.3,0.7,4.3,3.6v5
		c0,0.5,0,1.3,0.1,2.2H166c-0.2,0-0.5,0.1-0.6-0.1c0-0.5-0.1-0.9-0.1-1.4h0c-0.7,1.3-1.8,1.9-3.3,1.9c-1.8,0-3.7-0.9-3.7-3
		c0-3,2.6-3.8,5.1-3.8H165.2z M163.2,86.2c-1.2,0.1-2.8,0.5-2.8,2c0,1.3,0.9,2,2.1,2c2.4,0,2.8-2,2.8-4H163.2z"/>
	<path class="st0" d="M172.6,82.4L172.6,82.4c0.7-1.3,2.2-1.9,3.2-1.9c0.7,0,4,0.2,4,3.6v7.3h-2v-6.6c0-1.7-0.7-2.7-2.4-2.7
		c0,0-1.1-0.1-1.9,0.8c-0.3,0.3-0.8,0.8-0.8,2.8v5.7h-2V80.8h2V82.4z"/>
	<path class="st0" d="M190.3,76.2h2v13.3c0,0.6,0.1,1.3,0.1,1.9h-2l-0.1-1.6v-0.1h0c-0.7,1.5-2.1,2-3.6,2c-3.1,0-4.4-2.9-4.4-5.6
		c0-2.9,1.4-5.6,4.7-5.6c1.3,0,2.7,0.5,3.3,1.7h0V76.2z M187.3,90.3c2.4,0,3-2.2,3-4.2c0-1.9-0.7-4.2-3-4.2c-2.4,0-3,2.2-3,4.2
		S185.1,90.3,187.3,90.3z"/>
</g>
<g>
</g>
<g>
</g>
<g>
</g>
<g>
</g>
<g>
</g>
<g>
</g>
</svg>
